<svg xmlns="http://www.w3.org/2000/svg" xmlns:xlink="http://www.w3.org/1999/xlink" width="32" height="32" viewBox="0 0 32 32">
  <defs>
    <polygon id="overlay-normal-a" points="24 8 24 24 8 24 8 8"/>
  </defs>
  <g fill="none" fill-rule="evenodd">
    <mask id="overlay-normal-b" fill="#fff">
      <use xlink:href="#overlay-normal-a"/>
    </mask>
    <path fill="#3384F5" fill-rule="nonzero" d="M0.414213562,14 L17.3847763,30.9705627 L15.9705627,32.3847763 L-1,15.4142136 L0.414213562,14 Z M3.41421356,11 L20.3847763,27.9705627 L18.9705627,29.3847763 L2,12.4142136 L3.41421356,11 Z M6.41421356,8 L23.3847763,24.9705627 L21.9705627,26.3847763 L5,9.41421356 L6.41421356,8 Z M9.41421356,5 L26.3847763,21.9705627 L24.9705627,23.3847763 L8,6.41421356 L9.41421356,5 Z M12.4142136,2 L29.3847763,18.9705627 L27.9705627,20.3847763 L11,3.41421356 L12.4142136,2 Z M15.4142136,-1 L32.3847763,15.9705627 L30.9705627,17.3847763 L14,0.414213562 L15.4142136,-1 Z" mask="url(#overlay-normal-b)"/>
  </g>
</svg>
