<svg xmlns="http://www.w3.org/2000/svg" width="32" height="32" viewBox="0 0 32 32">
  <g fill="none" fill-rule="evenodd" transform="translate(7 7)">
    <path fill="#3384F5" fill-rule="nonzero" d="M15,2 L15,13 L9.827,13 L7,15.8284271 L4.172,13 L-1,13 L-1,2 L15,2 Z M12,9 L2,9 L2,10 L12,10 L12,9 Z M12,7 L2,7 L2,8 L12,8 L12,7 Z M12,5 L2,5 L2,6 L12,6 L12,5 Z" transform="rotate(-90 7 8.914)"/>
    <path fill="#BBB" d="M17,15 L17,3 L15,3 L15,1 L19,1 L19,17 L15,17 L15,15 L17,15 Z" transform="matrix(-1 0 0 1 34 0)"/>
  </g>
</svg>
