<svg xmlns="http://www.w3.org/2000/svg" width="32" height="32" viewBox="0 0 32 32">
  <g fill="none" fill-rule="evenodd">
    <path fill="#BBB" d="M16,15 L16,3 L14,3 L14,1 L18,1 L18,17 L14,17 L14,15 L16,15 Z" transform="rotate(90 16 9)"/>
    <path fill="#3384F5" fill-rule="nonzero" d="M24,12.1715729 L24,23.1715729 L18.827,23.1715729 L16,26 L13.172,23.1715729 L8,23.1715729 L8,12.1715729 L24,12.1715729 Z M21,19.1715729 L11,19.1715729 L11,20.1715729 L21,20.1715729 L21,19.1715729 Z M21,17.1715729 L11,17.1715729 L11,18.1715729 L21,18.1715729 L21,17.1715729 Z M21,15.1715729 L11,15.1715729 L11,16.1715729 L21,16.1715729 L21,15.1715729 Z" transform="matrix(1 0 0 -1 0 38.172)"/>
  </g>
</svg>
