<svg xmlns="http://www.w3.org/2000/svg" width="32" height="32" viewBox="0 0 32 32">
  <g fill="none" fill-rule="evenodd" transform="translate(7 7)">
    <path fill="#3384F5" fill-rule="nonzero" d="M20.0857864,2 L20.0857864,13 L14.9127864,13 L12.0857864,15.8284271 L9.25778644,13 L4.08578644,13 L4.08578644,2 L20.0857864,2 Z M17.0857864,9 L7.08578644,9 L7.08578644,10 L17.0857864,10 L17.0857864,9 Z M17.0857864,7 L7.08578644,7 L7.08578644,8 L17.0857864,8 L17.0857864,7 Z M17.0857864,5 L7.08578644,5 L7.08578644,6 L17.0857864,6 L17.0857864,5 Z" transform="rotate(90 12.086 8.914)"/>
    <path fill="#BBB" d="M2.08578644,15 L2.08578644,3 L0.0857864376,3 L0.0857864376,1 L4.08578644,1 L4.08578644,17 L0.0857864376,17 L0.0857864376,15 L2.08578644,15 Z"/>
  </g>
</svg>
