<svg xmlns="http://www.w3.org/2000/svg" width="24" height="24" viewBox="0 0 24 24">
  <path fill="#8896AB" fill-rule="evenodd" d="M14,4 L14.418903,6.50755047 C14.8193004,6.68414412 15.1967423,6.90323649 15.545513,7.15911193 L17.9282032,6.26794919 L19.9282032,9.73205081 L17.9650365,11.3484864 C17.9881443,11.5624861 18,11.7798585 18,12 C18,12.2201415 17.9881443,12.4375139 17.9650365,12.6515136 L19.9282032,14.2679492 L17.9282032,17.7320508 L15.545513,16.8408881 C15.1967423,17.0967635 14.8193004,17.3158559 14.418903,17.4924495 L14,20 L10,20 L9.58209833,17.492891 C9.18132885,17.3162211 8.80354843,17.0969768 8.45448705,16.8408881 L6.07179677,17.7320508 L4.07179677,14.2679492 L6.03496353,12.6515136 C6.01185573,12.4375139 6,12.2201415 6,12 C6,11.7798585 6.01185573,11.5624861 6.03496353,11.3484864 L4.07179677,9.73205081 L6.07179677,6.26794919 L8.45448705,7.15911193 C8.80354843,6.9030232 9.18132885,6.68377889 9.58209833,6.50710895 L10,4 L14,4 Z M12,9 C10.3431458,9 9,10.3431458 9,12 C9,13.6568542 10.3431458,15 12,15 C13.6568542,15 15,13.6568542 15,12 C15,10.3431458 13.6568542,9 12,9 Z"/>
</svg>
